# xmcd CD database file
#
# Track frame offsets:
#	150
#	19510
#	33935
#	47410
#	62785
#	76435
#	91885
#	108235
#	125905
#	139735
#	155110
#	172655
#
# Disc length: 2487 seconds
#
# Revision: 0
# Processed by: cddbd v1.4PL0 Copyright (c) Steve Scherf et al.
# Submitted via: CDex 1.50
#
DISCID=9209b50c
DTITLE=Fats Waller - Thomas 'Fats' Waller at the Organ (from Piano-Rolls) - All titles recorded in NYC
DYEAR=1996
DGENRE=Blues
TTITLE0=Laughin' Cryin' Blues (1923)
TTITLE1=Midnight Blues (1923/24)
TTITLE2=Papa Better Watch Yourself (1923)
TTITLE3='Tain't Nobody's Bizness If I Do (1923)
TTITLE4=You Can't Do What My Last Man Did (1923)
TTITLE5=Your Time Now (1923)
TTITLE6=The Clearing House Blues (1924)
TTITLE7=Do It Mister So And So (1924)
TTITLE8=Don't Try To Take My Loving Man Away (1924)
TTITLE9=18th Street Strut (1926)
TTITLE10=If I Could Be With You One Hour Tonight (1925)
TTITLE11=Just Squeeze Me (1926)
EXTD=YEAR: 1996
EXTT0=
EXTT1=
EXTT2=
EXTT3=
EXTT4=
EXTT5=
EXTT6=
EXTT7=
EXTT8=
EXTT9=
EXTT10=
EXTT11=
PLAYORDER=
